<mxfile host="Electron" modified="2024-02-16T08:31:32.624Z" agent="Mozilla/5.0 (Windows NT 10.0; Win64; x64) AppleWebKit/537.36 (KHTML, like Gecko) draw.io/23.0.2 Chrome/120.0.6099.109 Electron/28.1.0 Safari/537.36" etag="U4bAHa249mtkj1f9sSh8" version="23.0.2" type="device">
  <diagram name="Страница — 1" id="TqIGT7oiXTGArP3NpihS">
    <mxGraphModel dx="1235" dy="740" grid="1" gridSize="10" guides="1" tooltips="1" connect="1" arrows="1" fold="1" page="1" pageScale="1" pageWidth="827" pageHeight="1169" math="0" shadow="0">
      <root>
        <mxCell id="0" />
        <mxCell id="1" parent="0" />
        <mxCell id="DCaludRFVZ57gNzeMqbg-46" value="Организация питания семьи" style="rounded=0;whiteSpace=wrap;html=1;" vertex="1" parent="1">
          <mxGeometry x="290" y="310" width="326" height="70" as="geometry" />
        </mxCell>
        <mxCell id="DCaludRFVZ57gNzeMqbg-47" value="1" style="rounded=0;whiteSpace=wrap;html=1;" vertex="1" parent="1">
          <mxGeometry x="100" y="80" width="30" height="30" as="geometry" />
        </mxCell>
        <mxCell id="DCaludRFVZ57gNzeMqbg-48" value="Производим дважды по будням и трижды по выходным" style="text;html=1;strokeColor=none;fillColor=none;align=center;verticalAlign=middle;whiteSpace=wrap;rounded=0;" vertex="1" parent="1">
          <mxGeometry x="150" y="57.5" width="100" height="75" as="geometry" />
        </mxCell>
        <mxCell id="DCaludRFVZ57gNzeMqbg-51" value="2" style="rounded=0;whiteSpace=wrap;html=1;" vertex="1" parent="1">
          <mxGeometry x="95" y="170" width="40" height="20" as="geometry" />
        </mxCell>
        <mxCell id="DCaludRFVZ57gNzeMqbg-52" value="По рабочим дням обед покупается в школе" style="text;html=1;strokeColor=none;fillColor=none;align=center;verticalAlign=middle;whiteSpace=wrap;rounded=0;" vertex="1" parent="1">
          <mxGeometry x="150" y="147.5" width="90" height="65" as="geometry" />
        </mxCell>
        <mxCell id="DCaludRFVZ57gNzeMqbg-54" style="edgeStyle=orthogonalEdgeStyle;rounded=0;orthogonalLoop=1;jettySize=auto;html=1;entryX=0;entryY=0.5;entryDx=0;entryDy=0;" edge="1" parent="1" source="DCaludRFVZ57gNzeMqbg-53" target="DCaludRFVZ57gNzeMqbg-46">
          <mxGeometry relative="1" as="geometry" />
        </mxCell>
        <mxCell id="DCaludRFVZ57gNzeMqbg-53" value="Голодные" style="text;html=1;strokeColor=none;fillColor=none;align=center;verticalAlign=middle;whiteSpace=wrap;rounded=0;" vertex="1" parent="1">
          <mxGeometry x="165" y="330" width="60" height="30" as="geometry" />
        </mxCell>
        <mxCell id="DCaludRFVZ57gNzeMqbg-55" value="" style="endArrow=classic;html=1;rounded=0;" edge="1" parent="1">
          <mxGeometry width="50" height="50" relative="1" as="geometry">
            <mxPoint x="616" y="330" as="sourcePoint" />
            <mxPoint x="696" y="330" as="targetPoint" />
          </mxGeometry>
        </mxCell>
        <mxCell id="DCaludRFVZ57gNzeMqbg-56" value="сытые" style="text;html=1;strokeColor=none;fillColor=none;align=center;verticalAlign=middle;whiteSpace=wrap;rounded=0;" vertex="1" parent="1">
          <mxGeometry x="700" y="310" width="60" height="30" as="geometry" />
        </mxCell>
        <mxCell id="DCaludRFVZ57gNzeMqbg-58" value="" style="endArrow=classic;html=1;rounded=0;" edge="1" parent="1">
          <mxGeometry width="50" height="50" relative="1" as="geometry">
            <mxPoint x="616" y="360" as="sourcePoint" />
            <mxPoint x="706" y="360" as="targetPoint" />
          </mxGeometry>
        </mxCell>
        <mxCell id="DCaludRFVZ57gNzeMqbg-59" value="отходы" style="text;html=1;strokeColor=none;fillColor=none;align=center;verticalAlign=middle;whiteSpace=wrap;rounded=0;" vertex="1" parent="1">
          <mxGeometry x="710" y="350" width="60" height="30" as="geometry" />
        </mxCell>
        <mxCell id="DCaludRFVZ57gNzeMqbg-60" value="4" style="rounded=0;whiteSpace=wrap;html=1;" vertex="1" parent="1">
          <mxGeometry x="770" y="355" width="30" height="20" as="geometry" />
        </mxCell>
        <mxCell id="DCaludRFVZ57gNzeMqbg-61" value="Не оставляйте отходы за дверью ночью" style="text;html=1;strokeColor=none;fillColor=none;align=center;verticalAlign=middle;whiteSpace=wrap;rounded=0;" vertex="1" parent="1">
          <mxGeometry x="810" y="340" width="90" height="45" as="geometry" />
        </mxCell>
        <mxCell id="DCaludRFVZ57gNzeMqbg-62" value="" style="endArrow=classic;html=1;rounded=0;" edge="1" parent="1">
          <mxGeometry width="50" height="50" relative="1" as="geometry">
            <mxPoint x="660" y="360" as="sourcePoint" />
            <mxPoint x="660" y="430" as="targetPoint" />
          </mxGeometry>
        </mxCell>
        <mxCell id="DCaludRFVZ57gNzeMqbg-63" value="5" style="rounded=0;whiteSpace=wrap;html=1;" vertex="1" parent="1">
          <mxGeometry x="650" y="440" width="30" height="20" as="geometry" />
        </mxCell>
        <mxCell id="DCaludRFVZ57gNzeMqbg-64" value="Мусорщик приходит по средам в 7 утра" style="text;html=1;strokeColor=none;fillColor=none;align=center;verticalAlign=middle;whiteSpace=wrap;rounded=0;" vertex="1" parent="1">
          <mxGeometry x="705" y="420" width="70" height="60" as="geometry" />
        </mxCell>
        <mxCell id="DCaludRFVZ57gNzeMqbg-65" value="" style="endArrow=classic;html=1;rounded=0;" edge="1" parent="1">
          <mxGeometry width="50" height="50" relative="1" as="geometry">
            <mxPoint x="360" y="260" as="sourcePoint" />
            <mxPoint x="360" y="310" as="targetPoint" />
          </mxGeometry>
        </mxCell>
        <mxCell id="DCaludRFVZ57gNzeMqbg-66" value="Бюджет" style="text;html=1;strokeColor=none;fillColor=none;align=center;verticalAlign=middle;whiteSpace=wrap;rounded=0;" vertex="1" parent="1">
          <mxGeometry x="330" y="230" width="60" height="30" as="geometry" />
        </mxCell>
        <mxCell id="DCaludRFVZ57gNzeMqbg-67" value="" style="endArrow=classic;html=1;rounded=0;" edge="1" parent="1">
          <mxGeometry width="50" height="50" relative="1" as="geometry">
            <mxPoint x="460" y="250" as="sourcePoint" />
            <mxPoint x="460" y="310" as="targetPoint" />
          </mxGeometry>
        </mxCell>
        <mxCell id="DCaludRFVZ57gNzeMqbg-68" value="Внешние факторы" style="text;html=1;strokeColor=none;fillColor=none;align=center;verticalAlign=middle;whiteSpace=wrap;rounded=0;" vertex="1" parent="1">
          <mxGeometry x="430" y="220" width="60" height="30" as="geometry" />
        </mxCell>
        <mxCell id="DCaludRFVZ57gNzeMqbg-69" value="" style="endArrow=classic;html=1;rounded=0;" edge="1" parent="1">
          <mxGeometry width="50" height="50" relative="1" as="geometry">
            <mxPoint x="560" y="250" as="sourcePoint" />
            <mxPoint x="560" y="310" as="targetPoint" />
          </mxGeometry>
        </mxCell>
        <mxCell id="DCaludRFVZ57gNzeMqbg-70" value="Семейные правила" style="text;html=1;strokeColor=none;fillColor=none;align=center;verticalAlign=middle;whiteSpace=wrap;rounded=0;" vertex="1" parent="1">
          <mxGeometry x="530" y="213" width="60" height="30" as="geometry" />
        </mxCell>
        <mxCell id="DCaludRFVZ57gNzeMqbg-71" value="3" style="rounded=0;whiteSpace=wrap;html=1;" vertex="1" parent="1">
          <mxGeometry x="660" y="212.5" width="30" height="30" as="geometry" />
        </mxCell>
        <mxCell id="DCaludRFVZ57gNzeMqbg-72" value="Дети должны слушаться&amp;nbsp;" style="text;html=1;strokeColor=none;fillColor=none;align=center;verticalAlign=middle;whiteSpace=wrap;rounded=0;" vertex="1" parent="1">
          <mxGeometry x="705" y="213" width="60" height="30" as="geometry" />
        </mxCell>
        <mxCell id="DCaludRFVZ57gNzeMqbg-73" value="" style="endArrow=classic;html=1;rounded=0;entryX=1;entryY=0;entryDx=0;entryDy=0;" edge="1" parent="1" target="DCaludRFVZ57gNzeMqbg-46">
          <mxGeometry width="50" height="50" relative="1" as="geometry">
            <mxPoint x="660" y="240" as="sourcePoint" />
            <mxPoint x="610" y="330" as="targetPoint" />
          </mxGeometry>
        </mxCell>
        <mxCell id="DCaludRFVZ57gNzeMqbg-74" value="Цель: Определить действия, необходимые для организации питания в семье, чтобюы написать инструкцию, по которой подросток сможет есть" style="text;html=1;strokeColor=none;fillColor=none;align=center;verticalAlign=middle;whiteSpace=wrap;rounded=0;" vertex="1" parent="1">
          <mxGeometry x="280" y="430" width="130" height="160" as="geometry" />
        </mxCell>
        <mxCell id="DCaludRFVZ57gNzeMqbg-75" value="Точка зрения: родитель" style="text;html=1;strokeColor=none;fillColor=none;align=center;verticalAlign=middle;whiteSpace=wrap;rounded=0;" vertex="1" parent="1">
          <mxGeometry x="302.5" y="610" width="85" height="50" as="geometry" />
        </mxCell>
      </root>
    </mxGraphModel>
  </diagram>
</mxfile>
